<?xml version="1.0" encoding="UTF-8" standalone="no"?>
<svg
   xmlns:dc="http://purl.org/dc/elements/1.1/"
   xmlns:cc="http://creativecommons.org/ns#"
   xmlns:rdf="http://www.w3.org/1999/02/22-rdf-syntax-ns#"
   xmlns:svg="http://www.w3.org/2000/svg"
   xmlns="http://www.w3.org/2000/svg"
   xmlns:sodipodi="http://sodipodi.sourceforge.net/DTD/sodipodi-0.dtd"
   xmlns:inkscape="http://www.inkscape.org/namespaces/inkscape"
   id="svg"
   width="400"
   height="170.83333333333334"
   viewBox="0, 0, 400,170.83333333333334"
   version="1.1"
   sodipodi:docname="tecnm_sintexto.svg"
   inkscape:version="1.0.2 (e86c870879, 2021-01-15)">
  <metadata
     id="metadata9">
    <rdf:RDF>
      <cc:Work
         rdf:about="">
        <dc:format>image/svg+xml</dc:format>
        <dc:type
           rdf:resource="http://purl.org/dc/dcmitype/StillImage" />
        <dc:title></dc:title>
      </cc:Work>
    </rdf:RDF>
  </metadata>
  <defs
     id="defs7" />
  <sodipodi:namedview
     pagecolor="#ffffff"
     bordercolor="#666666"
     borderopacity="1"
     objecttolerance="10"
     gridtolerance="10"
     guidetolerance="10"
     inkscape:pageopacity="0"
     inkscape:pageshadow="2"
     inkscape:window-width="1920"
     inkscape:window-height="1011"
     id="namedview5"
     showgrid="false"
     inkscape:zoom="4.3204224"
     inkscape:cx="45.3343"
     inkscape:cy="88.079733"
     inkscape:window-x="0"
     inkscape:window-y="32"
     inkscape:window-maximized="1"
     inkscape:current-layer="svg"
     inkscape:document-rotation="0" />
  <path
     style="fill:#011f45;stroke:none;stroke-width:0.231459;fill-opacity:1"
     d="m 26.247581,170.44291 c -0.480819,-0.0959 -1.261993,-0.48765 -1.735941,-0.87054 l -0.861724,-0.69616 -1.511775,-6.68808 c -0.831476,-3.67844 -1.613374,-7.04156 -1.737551,-7.47359 -0.222909,-0.77554 -0.269849,-0.79927 -3.69605,-1.86857 -3.73813,-1.16665 -5.713688,-1.94879 -7.8101261,-3.09209 l -1.3308883,-0.7258 v -3.53419 c 0,-1.9438 0.057961,-3.53418 0.1288014,-3.53418 0.070841,0 1.2946794,0.50549 2.719642,1.12332 6.098394,2.6441 9.105128,3.34409 14.6267,3.40519 3.853307,0.0426 4.291074,0.0916 5.827888,0.65207 2.399636,0.87511 4.748994,1.14363 8.63829,0.9873 5.591011,-0.22473 10.426105,-1.42284 15.218576,-3.77107 2.096698,-1.02735 2.968053,-1.61836 4.472204,-3.03336 3.668871,-3.45141 5.621974,-7.06527 5.927351,-10.96749 l 0.138285,-1.76704 1.997027,-0.0955 c 1.637426,-0.0783 2.281684,-0.22869 3.577854,-0.83524 2.896666,-1.35552 5.160132,-4.30441 6.433098,-8.38118 0.478643,-1.5329 0.540963,-2.18264 0.532809,-5.55501 -0.0078,-3.2067 -0.0912,-4.11598 -0.520415,-5.67074 l -0.511176,-1.85168 0.75187,-0.64874 c 1.824739,-1.57444 5.514531,-2.71026 8.78531,-2.70437 0.92831,0.002 2.677322,0.21659 3.886694,0.47759 1.209373,0.26099 2.624091,0.5316 3.143818,0.60134 1.090208,0.14629 1.11771,0.10477 1.943595,-2.93364 C 97.79817,91.733613 98.007744,81.502403 95.867282,72.406323 90.185627,48.261647 69.746292,29.891962 45.393303,27.043238 39.904275,26.401152 32.444826,26.688064 27.481227,27.732191 c -2.805541,0.590162 -2.650062,0.720941 1.404271,1.181172 12.124875,1.376368 22.589789,5.300549 33.146949,12.429597 1.665839,1.124908 2.953082,2.175961 3.287507,2.684295 1.512137,2.298493 4.139739,10.924353 3.595843,11.804397 -0.08046,0.130179 -1.544055,-0.573599 -3.377123,-1.623908 C 49.87683,45.233843 36.792825,41.684114 16.127503,40.802344 12.881293,40.66383 9.6524417,40.479186 8.9522786,40.392023 L 7.679255,40.233543 7.5359133,38.497602 C 7.4570754,37.542834 7.3789581,33.346265 7.3623192,29.171891 L 7.3320667,21.582123 8.3157668,21.150046 C 8.9977509,20.850493 19.297201,17.343373 20.21605,17.097818 c 0.02091,-0.0056 0.732815,-3.030698 1.582012,-6.722467 1.880775,-8.1764108 2.206542,-9.0885091 3.472065,-9.72127113 0.835102,-0.41755056 1.481583,-0.47052431 6.596578,-0.54053409 3.118908,-0.04268901 8.580212,0.0308839 12.13623,0.16349538 6.368942,0.23751134 6.473802,0.24942392 7.02213,0.79775364 0.759035,0.7590331 1.136468,2.0217414 2.83944,9.4993852 1.263874,5.549587 1.534908,6.473948 1.944819,6.632845 0.261958,0.101545 2.234205,0.750712 4.382771,1.442593 l 3.906483,1.257967 4.277487,-3.956011 c 7.191665,-6.6511688 7.582411,-6.9164007 9.44899,-6.4137837 1.368767,0.3685709 2.973717,1.4059217 10.505985,6.7904857 7.981171,5.705473 9.068898,6.580448 9.617393,7.736316 0.586732,1.236448 0.333877,2.080479 -2.784476,9.294593 -1.469238,3.398989 -2.641633,6.36089 -2.605324,6.581998 0.03631,0.22111 1.208104,1.9787 2.603989,3.905757 l 2.537969,3.50374 1.396831,-0.141428 c 0.768256,-0.07778 3.896588,-0.401995 6.951848,-0.720471 5.67436,-0.591489 7.65646,-0.696164 8.32495,-0.43964 0.70114,0.26905 1.74608,2.845381 4.52041,11.145137 3.28794,9.836325 3.9354,12.038276 3.9354,13.384018 0,0.936237 -0.0801,1.071545 -1.05157,1.776548 -0.57836,0.419718 -3.76295,2.373664 -7.07686,4.342101 l -6.02529,3.578979 0.1443,4.513447 c 0.13242,4.141873 0.18273,4.54609 0.61108,4.909939 0.25673,0.218069 2.51709,1.562197 5.02303,2.986949 8.16642,4.643025 9.01805,5.336397 8.70425,7.086735 -0.22994,1.282656 -2.60522,8.998706 -5.00398,16.255336 -2.33533,7.06475 -2.64229,7.61617 -4.27618,7.68159 -1.86213,0.0746 -10.23444,-0.55866 -14.462609,-1.09386 l -1.078052,-0.13646 -0.981513,1.4654 c -0.539831,0.80597 -1.656315,2.38046 -2.481072,3.49886 -1.355897,1.83865 -1.488384,2.11677 -1.382927,2.90301 0.06415,0.47826 1.221654,3.29187 2.572234,6.25247 1.350584,2.9606 2.623586,5.96075 2.828897,6.667 0.784229,2.69765 0.108691,3.43132 -10.203916,11.082 -3.691769,2.73883 -7.46121,5.355 -8.376538,5.8137 -2.613531,1.30973 -2.985853,1.14568 -8.549321,-3.76705 -1.893387,-1.67193 -4.15142,-3.64204 -5.017852,-4.37804 l -1.575334,-1.33818 -4.348033,1.4272 -4.348036,1.42721 -1.097244,5.26542 c -2.117534,10.16156 -2.202496,10.40392 -3.955572,11.28336 -0.883219,0.44307 -1.4239,0.46447 -12.611452,0.49912 -6.428769,0.0199 -12.082069,-0.0423 -12.562889,-0.13817 z"
     id="path11" />
  <path
     style="fill:#011f45;fill-opacity:1;stroke-width:0.231459"
     d="m 84.639322,80.963699 c 0,-0.194583 0.312469,-0.972787 0.694377,-1.72934 0.751468,-1.488651 0.903592,-3.056481 0.453726,-4.676251 -0.798916,-2.876552 -5.691916,-6.24814 -12.52456,-8.63022 l -2.465291,-0.85948 0.209968,-0.72876 c 1.079329,-3.746141 0.580912,-10.173579 -1.210852,-15.614778 -0.264679,-0.803771 -0.412747,-1.52989 -0.32904,-1.613597 0.217239,-0.217239 2.855691,0.74255 5.626139,2.046618 9.612842,4.524829 15.259628,11.961805 15.719015,20.702384 0.252646,4.807019 -1.241093,8.504567 -4.343612,10.752021 -1.055561,0.764645 -1.82987,0.913341 -1.82987,0.351403 z"
     id="path836" />
  <path
     style="fill:#011f45;fill-opacity:1;stroke-width:0.231459"
     d="m 62.187814,97.884202 c -3.625263,-0.934737 -6.542898,-3.701131 -7.635996,-7.240172 -0.57122,-1.849396 -0.623228,-5.137879 -0.112872,-7.136918 0.741034,-2.902589 2.814934,-6.020498 4.835013,-7.268975 0.730588,-0.451528 0.808833,-0.455464 1.895812,-0.09536 1.476741,0.489227 1.699917,0.717822 0.877928,0.899243 -1.75032,0.386314 -1.599118,0.607193 0.962347,1.405816 2.176936,0.678734 2.64965,0.5725 2.64965,-0.59546 0,-0.523661 0.161237,-0.694261 0.948379,-1.00346 1.407538,-0.552896 1.066611,-0.944847 -0.966721,-1.111401 -1.860713,-0.152415 -3.916458,-0.652266 -3.916458,-0.952281 0,-0.618541 3.379867,-1.893578 5.72187,-2.158546 l 1.364645,-0.154392 0.655389,-2.463304 c 0.360464,-1.354817 0.68262,-2.496429 0.715901,-2.536915 0.03328,-0.04049 1.176287,0.362636 2.540012,0.895826 l 2.479499,0.969436 -0.09853,1.187304 c -0.107555,1.296 -1.139703,3.80441 -1.620747,3.938868 -0.165452,0.04625 -1.019536,0.194536 -1.897964,0.329533 -2.345374,0.360436 -2.371404,0.432086 -1.151028,3.168292 1.890292,4.238226 2.688586,6.766864 2.719875,8.615342 0.02537,1.49906 -0.03212,1.732122 -0.557115,2.258225 -0.396955,0.397796 -1.030298,0.668722 -1.9674,0.841599 -0.760095,0.140223 -1.620027,0.298691 -1.910961,0.352151 -0.734049,0.134887 -1.08621,1.118864 -0.798925,2.232287 0.204815,0.7938 0.171983,0.917297 -0.353814,1.330889 -0.318768,0.250744 -0.733594,0.455897 -0.921834,0.455897 -0.275162,0 -0.311211,0.20701 -0.183895,1.056015 0.214107,1.42777 0.09344,1.548818 -2.883304,2.892321 -0.190954,0.08618 -0.815893,0.03585 -1.388753,-0.111859 z"
     id="path838" />
  <path
     style="fill:#011f45;fill-opacity:1;stroke-width:0.231459"
     d="m 65.263191,67.548227 c -3.502331,-1.122995 -5.786779,-1.391869 -11.755084,-1.383546 -4.297344,0.006 -6.04161,0.09963 -7.704269,0.413607 -1.182091,0.223223 -2.275734,0.33457 -2.430318,0.247439 -1.226286,-0.6912 -2.860069,-2.234692 -3.729636,-3.523519 -1.307666,-1.938156 -2.00808,-4.019762 -2.162721,-6.427531 -0.136989,-2.132935 0.03973,-2.674878 0.781227,-2.395801 0.355423,0.13377 0.574797,0.530606 0.784125,1.418447 0.668704,2.836231 2.168231,4.842604 4.463951,5.972783 3.609384,1.776894 7.832209,1.227454 10.669954,-1.388288 1.365055,-1.258264 2.146811,-2.899341 2.478756,-5.20345 0.14672,-1.018419 0.295335,-1.88544 0.330255,-1.926714 0.09027,-0.106694 7.960032,3.496475 10.174748,4.658508 l 1.851671,0.971548 -0.06455,1.504482 c -0.07774,1.811877 -0.675767,5.514597 -1.078918,6.680121 -0.160241,0.46326 -0.437219,0.859154 -0.615504,0.879764 -0.178289,0.02061 -1.075449,-0.203423 -1.99369,-0.49785 z"
     id="path840" />
  <path
     style="fill:#011f45;fill-opacity:1;stroke-width:0.231459"
     d="m 46.090592,59.947801 c -2.137314,-0.823501 -3.414882,-2.276574 -3.85768,-4.387624 -0.234436,-1.117681 -0.214946,-1.487104 0.137434,-2.604982 1.100505,-3.491202 4.780561,-5.052293 8.027837,-3.405433 3.573731,1.812421 4.218556,6.193133 1.334687,9.067385 -1.493462,1.488481 -3.812931,2.035496 -5.642278,1.330654 z m 5.344906,-5.584747 c 1.148081,-1.148081 0.334556,-3.135216 -1.283544,-3.135216 -1.384108,0 -2.360462,1.754506 -1.554987,2.794308 0.787871,1.017076 2.014986,1.164453 2.838531,0.340908 z"
     id="path842" />
  <path
     style="fill:#011f45;fill-opacity:1;stroke-width:0.231459"
     d="M 36.958799,51.547549 C 30.874248,49.583908 21.817134,47.85324 12.887079,46.947832 7.1209657,46.363213 7.2655049,46.428044 7.3771839,44.476456 l 0.070612,-1.233948 1.1572943,-0.115729 c 2.7154648,-0.271547 15.2632538,0.673515 20.2526498,1.525369 4.49653,0.767705 12.730236,2.733276 12.730236,3.038994 0,0.06266 -0.301206,0.494233 -0.669351,0.959051 -0.368142,0.464818 -0.9627,1.443254 -1.321241,2.174302 -0.358539,0.731048 -0.708308,1.318853 -0.777267,1.306233 -0.06896,-0.01262 -0.90655,-0.275051 -1.861318,-0.583179 z"
     id="path844" />
  <path
     style="fill:#011f45;fill-opacity:1;stroke-width:0.231459"
     d="M 31.982434,57.911318 C 28.729031,56.968692 19.264284,54.886437 13.234267,53.786701 7.2792385,52.70064 7.3320667,52.731089 7.3320667,50.384826 c 0,-1.121406 0.087039,-1.519505 0.3546754,-1.622207 0.3983164,-0.152848 2.6589559,0.104912 9.6244779,1.097389 5.864094,0.835542 9.680548,1.551968 14.221161,2.669605 l 3.484749,0.857743 -0.01287,2.623068 c -0.01072,2.183529 -0.07104,2.61875 -0.360053,2.597291 -0.190953,-0.01418 -1.388753,-0.327556 -2.661776,-0.696397 z"
     id="path846" />
  <path
     style="fill:#011f45;fill-opacity:1;stroke-width:0.231459"
     d="M 36.611611,68.437864 C 32.014431,68.00542 22.717153,65.643363 10.572491,61.822392 8.2717043,61.098515 8.1193467,61.011226 7.7139041,60.184637 7.2601502,59.259554 7.1152456,57.551933 7.4006853,56.493527 c 0.1494531,-0.55417 0.2867219,-0.636512 1.0611002,-0.636512 1.7731015,0 16.2631895,2.778763 23.5677595,4.519587 l 3.518996,0.838646 0.949303,1.759949 c 0.522118,0.967972 1.570659,2.574594 2.330094,3.570273 l 1.380789,1.810323 h -0.670196 c -0.368608,0 -0.969646,0.03806 -1.33564,0.08458 -0.365995,0.04652 -1.082071,0.04539 -1.59128,-0.0025 z"
     id="path848" />
  <path
     style="fill:#011f45;fill-opacity:1;stroke-width:0.231459"
     d="M 7.9729775,74.229384 C 7.5403902,73.479042 7.2213831,71.091729 7.2190419,68.587252 7.2161823,65.52824 7.524165,64.186921 8.228118,64.192546 c 0.2073348,0.0017 3.237921,0.782892 6.734637,1.736078 7.080279,1.930045 13.237993,3.361006 16.90395,3.928227 3.880023,0.600342 3.701797,0.446163 1.915528,1.657081 -0.862587,0.58475 -1.776653,1.245615 -2.031258,1.468587 -0.408499,0.357748 -1.238379,0.422867 -7.059495,0.553949 -5.965785,0.13434 -9.074114,0.291629 -14.7237608,0.745057 -1.0327874,0.08289 -1.9304211,0.05943 -1.9947417,-0.05214 z"
     id="path850" />
  <path
     style="fill:#011f45;fill-opacity:1;stroke-width:0.231459"
     d="M 38.463282,84.754988 C 33.368722,83.548024 24.965903,82.718763 15.598831,82.498534 10.68215,82.382937 7.9222108,82.231675 7.75942,82.068884 7.1357783,81.445242 7.0473628,78.816523 7.6006476,77.348355 c 0.259567,-0.688774 0.1480739,-0.662081 5.2864314,-1.265654 3.444817,-0.404643 23.291297,-0.729286 26.786212,-0.438162 l 1.917259,0.159707 -0.91463,1.039076 c -1.707829,1.940194 -2.111961,4.953683 -0.965663,7.200616 0.564734,1.106967 0.523477,1.130492 -1.246975,0.71105 z"
     id="path852" />
  <path
     style="fill:#011f45;fill-opacity:1;stroke-width:0.231459"
     d="m 51.771275,79.581547 c -0.02991,-1.49242 -1.694769,-3.535578 -3.607477,-4.427179 -2.47793,-1.155076 -4.529119,-1.516717 -9.340332,-1.646772 l -4.500452,-0.121655 0.565651,-0.458115 c 1.591537,-1.288969 5.440042,-2.808985 9.601764,-3.792337 2.631972,-0.621896 3.041831,-0.654302 8.323301,-0.6581 4.864724,-0.0035 5.871394,0.06079 8.10106,0.517343 3.054162,0.62538 4.668405,1.091301 4.378989,1.263915 -0.117001,0.06978 -0.681434,0.203117 -1.254294,0.2963 -1.507867,0.245273 -4.468989,1.366381 -5.859055,2.218291 -2.586232,1.584987 -4.212849,3.304518 -5.731406,6.05879 -0.432226,0.783946 -0.671751,1.048836 -0.677749,0.749519 z"
     id="path854" />
  <path
     style="fill:#011f45;fill-opacity:1;stroke-width:0.231459"
     d="m 36.825879,143.57571 c -2.577084,-0.27199 -3.524238,-0.47136 -3.79621,-0.79906 -0.837594,-1.00924 -1.077785,-17.20794 -0.379342,-25.58304 0.95917,-11.50149 2.853521,-21.807896 5.132513,-27.923958 0.467561,-1.254782 0.88548,-2.320247 0.928708,-2.3677 0.04323,-0.04745 0.996666,0.140568 2.118752,0.417826 l 2.040155,0.504104 -0.08891,4.715885 c -0.126895,6.730589 0.47637,11.291983 2.203214,16.658903 2.754848,8.56189 8.002732,15.43584 14.502949,18.99673 0.870036,0.47661 1.639754,1.01738 1.710486,1.2017 0.176015,0.45869 -0.515447,2.85782 -1.24198,4.30925 -2.637217,5.26848 -9.230545,9.04353 -17.22851,9.86428 -2.568608,0.26358 -3.445344,0.26434 -5.901824,0.005 z"
     id="path856" />
  <path
     style="fill:#011f45;fill-opacity:1;stroke-width:0.231459"
     d="m 65.241086,125.17473 c -3.46763,-1.19192 -6.057995,-2.77391 -8.922916,-5.44943 -4.361065,-4.07275 -7.88607,-9.79014 -10.073123,-16.3381 -1.354851,-4.056383 -1.902212,-7.177769 -2.043637,-11.654063 -0.134902,-4.269814 0.06365,-4.615493 0.859342,-1.496095 1.402714,5.499162 6.043081,11.826708 11.179707,15.244498 3.724979,2.47852 7.144166,3.60777 10.92372,3.60777 2.023927,0 5.350303,-0.61094 6.407785,-1.17689 0.372485,-0.19935 0.555076,-0.17299 0.850873,0.1228 0.63338,0.63338 0.667956,5.1337 0.05797,7.54585 -1.167145,4.61544 -4.559883,9.50558 -6.969444,10.04546 -0.334212,0.0749 -1.293234,-0.11597 -2.270281,-0.4518 z"
     id="path858" />
  <path
     style="fill:#011f45;fill-opacity:1;stroke-width:0.231459"
     d="m 61.840625,105.65946 c -3.403607,-1.01976 -6.149308,-2.75926 -9.145523,-5.794033 -3.395914,-3.439613 -6.330571,-8.278971 -6.63615,-10.94326 l -0.14217,-1.23956 0.522391,0.462918 c 0.287315,0.254604 0.783109,0.9837 1.101765,1.620211 2.032677,4.060261 4.864216,7.114823 8.007375,8.638072 2.249897,1.090352 3.418403,1.391225 6.413523,1.651382 2.070573,0.17986 2.333783,0.26042 3.434609,1.05129 1.528926,1.09842 2.992918,1.64692 4.95351,1.85589 0.861062,0.0918 1.61518,0.24715 1.675823,0.34527 0.163657,0.2648 -1.327523,1.33053 -2.8397,2.0295 -1.75323,0.81039 -5.210163,0.96208 -7.345453,0.32232 z"
     id="path860" />
  <path
     style="fill:#011f45;fill-opacity:1;stroke-width:0.231459"
     d="m 19.020739,141.01348 c -3.078609,-0.31636 -6.016567,-1.10167 -8.177038,-2.18569 -2.255159,-1.13153 -3.611418,-2.37432 -4.6328493,-4.24525 l -0.6788911,-1.2435 0.5840658,-1.30255 c 0.3212363,-0.71639 1.7484371,-3.69814 3.1715572,-6.62609 6.0367794,-12.42018 12.8968094,-23.7525 20.5266804,-33.908722 4.277012,-5.693186 4.170097,-5.591652 5.572256,-5.291817 l 1.0895,0.232975 -0.48077,1.198533 C 30.191954,102.10864 27.302208,117.2423 26.628732,136.69402 l -0.158272,4.57131 -2.799026,-0.0308 c -1.539463,-0.0169 -3.632277,-0.11641 -4.650695,-0.22106 z"
     id="path862" />
  <path
     style="fill:#011f45;fill-opacity:1;stroke-width:0.231459"
     d="M 7.5411992,117.3813 C 5.8099184,113.98772 5.4485578,104.5902 6.9176323,101.16488 7.8290248,99.039854 10.601596,96.940014 22.029704,89.719567 c 6.192623,-3.91259 6.904912,-4.292523 8.018713,-4.277152 0.517695,0.0071 0.993961,0.06569 1.058369,0.130097 0.06441,0.06441 -0.702744,1.034233 -1.704783,2.155165 -4.865871,5.443211 -9.143325,11.570223 -18.02605,25.820453 -1.6465654,2.64153 -3.071683,4.80277 -3.1669283,4.80277 -0.095245,0 -0.3957666,-0.43631 -0.6678255,-0.9696 z"
     id="path864" />
  <path
     style="fill:#011f45;fill-opacity:1;stroke-width:0.115729"
     d="m 53.733164,95.348674 c -1.440882,-0.76985 -4.010573,-3.981676 -5.4901,-6.862009 -0.322132,-0.627125 -0.585695,-1.219743 -0.585695,-1.316929 0,-0.09895 0.318263,-0.344382 0.723309,-0.557787 0.439238,-0.231419 1.071558,-0.730828 1.610027,-1.271606 l 0.886718,-0.890519 0.07433,1.120157 c 0.248646,3.747025 0.971559,5.945919 2.915758,8.868897 0.439981,0.661483 0.572444,0.946086 0.470484,1.01086 -0.185799,0.118037 -0.198829,0.11586 -0.604833,-0.101064 z"
     id="path866" />
  <path
     style="fill:#011f45;fill-opacity:1;stroke-width:0.115729"
     d="m 7.4427343,94.241484 c -0.042969,-0.588773 -0.060849,-2.79149 -0.039733,-4.894927 0.034638,-3.450344 0.058795,-3.855541 0.246972,-4.142492 0.1147184,-0.174935 0.3312617,-0.364707 0.4812073,-0.421716 1.5144626,-0.575798 16.0491174,-0.334721 18.6780474,0.3098 0.215716,0.05289 -0.23028,0.312315 -2.140995,1.245381 -3.753275,1.832851 -7.331804,3.782499 -12.063826,6.572592 -3.3141405,1.954082 -4.1933526,2.401637 -4.718227,2.401768 l -0.3653202,9.1e-5 z"
     id="path868" />
  <path
     style="fill:#011f45;fill-opacity:1;stroke-width:0.115729"
     d="m 44.547921,85.11881 c -1.275842,-0.250736 -2.343332,-1.11947 -2.93855,-2.391422 -0.924739,-1.976121 -0.04736,-4.40239 1.958491,-5.415935 0.598448,-0.302392 0.794283,-0.341393 1.717054,-0.341953 0.927607,-5.63e-4 1.123868,0.03873 1.793806,0.359109 0.902541,0.431618 1.634519,1.146703 2.05946,2.011934 0.26978,0.549302 0.312994,0.781093 0.312994,1.678854 0,0.883553 -0.04627,1.140235 -0.304967,1.691966 -0.582672,1.242664 -1.701485,2.114219 -3.085815,2.403849 -0.687463,0.143831 -0.797583,0.144093 -1.512473,0.0036 z m 1.753345,-2.117759 c 1.501812,-0.642583 1.682694,-2.825929 0.309407,-3.734727 -0.657479,-0.4351 -1.442649,-0.492041 -2.138678,-0.155099 -0.61239,0.296453 -1.149869,0.960222 -1.262146,1.558708 -0.158877,0.84689 0.453612,1.976592 1.26281,2.329182 0.459856,0.200372 1.362598,0.201328 1.828607,0.0019 z"
     id="path870" />
  <path
     style="fill:#011f45;fill-opacity:1;stroke-width:0.115729"
     d="m 44.512787,81.651701 c -0.260928,-0.152255 -0.387949,-0.766969 -0.204226,-0.988342 0.11219,-0.13518 0.373557,-0.165746 1.196463,-0.139922 l 1.052916,0.03304 0.03576,0.369297 c 0.05782,0.597156 -0.286929,0.84661 -1.164118,0.842342 -0.39782,-0.0019 -0.810376,-0.05432 -0.916791,-0.116418 z"
     id="path872" />
</svg>
